<?xml version="1.0" encoding="UTF-8"?><svg xmlns="http://www.w3.org/2000/svg" viewBox="0 0 285.38 159.74"><defs><style>.j,.k{fill:#fff;}.k{opacity:0;stroke:#151749;stroke-miterlimit:10;stroke-width:.25px;}.l{fill:#c9e0ff;}</style></defs><g id="a"/><g id="b"><g id="c"><g id="d"><rect id="e" class="k" x=".12" y=".12" width="285.13" height="159.49"/><g id="f"><g><g><path class="j" d="M115.34,75.47c-1.32-3.28-3.28-6.19-5.9-8.72-5.19-5.01-12.04-7.55-20.35-7.55h-21.12c-1.43,0-2.59,1.16-2.59,2.59v48.91c0,1.43,1.16,2.59,2.59,2.59h21.12c8.45,0,15.33-2.48,20.45-7.37,5.17-4.93,7.79-11.51,7.79-19.55,0-3.99-.66-7.63-1.98-10.91Zm-15.34,21.19h0c-2.58,2.53-6.15,3.76-10.91,3.76h-9.11c-.72,0-1.3-.58-1.3-1.3v-25.74c0-.72,.58-1.3,1.3-1.3h9.11c4.64,0,8.18,1.26,10.82,3.86,2.62,2.58,3.89,5.96,3.89,10.35s-1.25,7.86-3.81,10.37Z"/><path class="j" d="M165.4,103.01v7.69c0,1.43-1.16,2.59-2.59,2.59h-38.53c-1.43,0-2.59-1.16-2.59-2.59V61.8c0-1.43,1.16-2.59,2.59-2.59h8.12c1.43,0,2.59,1.16,2.59,2.59v37.33c0,.72,.58,1.3,1.3,1.3h26.52c1.43,0,2.59,1.16,2.59,2.59Z"/><path class="j" d="M209.95,92.36c-.35-.61-.15-1.39,.46-1.75,1.59-.94,3.01-2.15,4.24-3.6,2.6-3.09,3.92-6.82,3.92-11.09,0-5.15-1.73-9.3-5.15-12.33-3.28-2.91-7.73-4.38-13.21-4.38h-27.87c-1.43,0-2.59,1.16-2.59,2.59v48.91c0,1.43,1.16,2.59,2.59,2.59h8.11c1.43,0,2.59-1.16,2.59-2.59v-37.33c0-.72,.58-1.3,1.3-1.3h15.78c1.75,0,3.04,.36,3.82,1.07,.44,.4,1.02,1.13,1.02,2.93,0,2.03-.69,2.62-.95,2.84-.48,.42-1.22,.71-2.16,.87-6.29,1.09-9.49,8.23-6.32,13.78,3.5,6.14,7.01,12.28,10.52,18.42,.46,.81,1.32,1.31,2.25,1.31h9.1c1.99,0,3.24-2.15,2.25-3.88l-9.71-17.06Z"/></g><g><path class="j" d="M87.71,139.6v-15.27c0-.14-.11-.25-.25-.25h-7.18c-.28,0-.5-.22-.5-.5v-1.08c0-.28,.22-.5,.5-.5h17.22c.28,0,.5,.22,.5,.5v1.08c0,.28-.22,.5-.5,.5h-7.2c-.14,0-.25,.11-.25,.25v15.27c0,.28-.22,.5-.5,.5h-1.36c-.28,0-.5-.22-.5-.5Z"/><path class="j" d="M117.58,139.6v-17.1c0-.28,.22-.5,.5-.5h13.82c.28,0,.5,.22,.5,.5v1.08c0,.28-.22,.5-.5,.5h-11.74c-.14,0-.25,.11-.25,.25v4.82c0,.14,.11,.25,.25,.25h6.8c.28,0,.5,.22,.5,.5v1.08c0,.28-.22,.5-.5,.5h-6.8c-.14,0-.25,.11-.25,.25v6.05c0,.14,.11,.25,.25,.25h12.51c.28,0,.5,.22,.5,.5v1.08c0,.28-.22,.5-.5,.5h-14.59c-.28,0-.5-.22-.5-.5Z"/><path class="j" d="M168.96,134.44l1.02,.73c.2,.15,.26,.43,.13,.64-.8,1.31-1.86,2.34-3.16,3.08-1.43,.81-3.06,1.21-4.89,1.21-2.69,0-4.92-.85-6.67-2.56-1.75-1.7-2.63-3.87-2.63-6.48s.88-4.79,2.64-6.5c1.76-1.71,3.98-2.56,6.66-2.56,1.66,0,3.18,.35,4.55,1.05,1.22,.62,2.24,1.48,3.05,2.58,.16,.22,.11,.53-.11,.68l-1.06,.72c-.22,.15-.52,.09-.67-.14-.55-.83-1.28-1.5-2.19-2-1.06-.58-2.25-.88-3.57-.88-2.02,0-3.69,.66-5.02,1.99-1.33,1.33-1.99,3.01-1.99,5.04s.66,3.71,1.99,5.04c1.33,1.32,3,1.99,5.02,1.99,1.41,0,2.67-.33,3.76-1,.97-.59,1.79-1.42,2.46-2.5,.14-.23,.46-.29,.68-.14Z"/><path class="j" d="M189.75,139.6v-17.1c0-.28,.22-.5,.5-.5h1.38c.28,0,.5,.22,.5,.5v6.4c0,.14,.11,.25,.25,.25h10.62c.14,0,.25-.11,.25-.25v-6.4c0-.28,.22-.5,.5-.5h1.36c.28,0,.5,.22,.5,.5v17.1c0,.28-.22,.5-.5,.5h-1.36c-.28,0-.5-.22-.5-.5v-8.12c0-.14-.11-.25-.25-.25h-10.62c-.14,0-.25,.11-.25,.25v8.12c0,.28-.22,.5-.5,.5h-1.38c-.28,0-.5-.22-.5-.5Z"/></g></g><g id="g"><g id="h"><path class="l" d="M39.28,25.85v25.67c0,.85-.45,1.64-1.19,2.07-1.52,.89-3.05,1.78-4.57,2.67-1.3,.76-2.94-.18-2.94-1.69V31.65c0-2.55,1.36-4.92,3.56-6.2l2.2-1.28c1.3-.76,2.94,.18,2.94,1.69Z"/><path class="l" d="M50.15,22.3v53.58c0,.7-.37,1.34-.97,1.69h0c-2.09,1.22-4.67,1.22-6.76,0h0c-.6-.35-.97-1-.97-1.69V22.31c0-.7,.37-1.34,.97-1.69h0c2.09-1.22,4.67-1.22,6.76,0h0c.6,.35,.97,.99,.97,1.69Z"/><path class="l" d="M71.9,40.67v8.36c0,1.31-.69,2.51-1.82,3.17-1.37,.8-2.75,1.6-4.12,2.4-1.22,.71-2.76-.17-2.76-1.59v-12.7c0-.85,.45-1.64,1.19-2.07,.54-.32,1.09-.64,1.63-.95,2.61-1.52,5.88,.36,5.88,3.38Z"/><path class="l" d="M28.4,45.17v12.7c0,.85-.45,1.64-1.19,2.07-.54,.32-1.09,.64-1.63,.95-2.61,1.52-5.88-.36-5.88-3.38v-8.36c0-1.31,.69-2.51,1.82-3.17,1.37-.8,2.75-1.6,4.12-2.4,1.22-.71,2.76,.17,2.76,1.59Z"/><path class="l" d="M61.02,43.61v22.92c0,2.55-1.36,4.92-3.56,6.2l-2.2,1.28c-1.3,.76-2.94-.18-2.94-1.69v-25.67c0-.85,.45-1.64,1.19-2.07,1.52-.89,3.05-1.78,4.57-2.67,1.3-.76,2.94,.18,2.94,1.69Z"/></g></g></g><g id="i"><path class="j" d="M230.38,62.44c-.08-1,.16-2.81-1.05-3.35,1.43-.7,1.28-2.71,.21-3.56-.98-.96-3.72-.62-5.08-.68v8.3h1.47v-3.29h1.54c.51,0,.86,.11,1.08,.33,.54,.47,.23,2.8,.45,2.96h1.51c.02-.25-.12-.42-.13-.71Zm-1.96-4.2c-.55,.42-1.79,.29-2.49,.31v-2.4c.65,.03,2.22-.12,2.63,.3,.44,.36,.53,1.45-.14,1.79Z"/><path class="j" d="M227.33,66.33c-4.04,0-7.32-3.29-7.32-7.32s3.29-7.32,7.32-7.32,7.32,3.29,7.32,7.32-3.29,7.32-7.32,7.32Zm0-13.44c-3.37,0-6.11,2.74-6.11,6.11s2.74,6.11,6.11,6.11,6.11-2.74,6.11-6.11-2.74-6.11-6.11-6.11Z"/></g></g></g></g></svg>