<?xml version="1.0" encoding="UTF-8"?><svg xmlns="http://www.w3.org/2000/svg" viewBox="0 0 176.08 188.7"><defs><style>.g{fill:#151749;opacity:0;stroke:#151749;stroke-miterlimit:10;}.h{fill:#212184;}</style></defs><g id="a"/><g id="b"><g id="c"><g id="d"><rect id="e" class="g" x=".5" y=".5" width="175.08" height="187.7"/><g id="f"><path class="h" d="M75.54,49.81v49.2c0,1.63-.87,3.14-2.28,3.96-2.92,1.71-5.84,3.41-8.77,5.12-2.5,1.46-5.63-.35-5.63-3.24V60.92c0-4.89,2.6-9.42,6.83-11.89l4.21-2.46c2.5-1.46,5.63,.34,5.63,3.24Z"/><path class="h" d="M96.37,43v102.69c0,1.33-.71,2.56-1.86,3.24h0c-4,2.33-8.95,2.33-12.95,0h0c-1.15-.68-1.86-1.91-1.86-3.24V43.01c0-1.33,.71-2.56,1.86-3.24h0c4-2.34,8.95-2.34,12.95,0h0c1.15,.67,1.86,1.9,1.86,3.24Z"/><path class="h" d="M138.06,78.21v16.02c0,2.5-1.33,4.82-3.49,6.08-2.63,1.54-5.26,3.07-7.9,4.61-2.34,1.37-5.29-.32-5.29-3.04v-24.34c0-1.63,.87-3.14,2.28-3.96,1.04-.61,2.09-1.22,3.13-1.83,5-2.91,11.27,.69,11.27,6.47Z"/><path class="h" d="M54.69,86.82v24.34c0,1.63-.87,3.14-2.28,3.96-1.04,.61-2.09,1.22-3.13,1.83-5,2.91-11.27-.69-11.27-6.47v-16.02c0-2.5,1.33-4.82,3.49-6.08,2.63-1.54,5.26-3.07,7.9-4.61,2.34-1.37,5.29,.32,5.29,3.04Z"/><path class="h" d="M117.22,83.85v43.94c0,4.89-2.6,9.42-6.83,11.89l-4.21,2.46c-2.5,1.46-5.63-.34-5.63-3.24v-49.2c0-1.63,.87-3.14,2.28-3.96,2.92-1.71,5.84-3.41,8.76-5.11,2.5-1.46,5.63,.34,5.63,3.24Z"/></g></g></g></g></svg>