<?xml version="1.0" encoding="UTF-8"?><svg xmlns="http://www.w3.org/2000/svg" viewBox="0 0 88.8 86.38"><defs><style>.d{fill:none;stroke:#000;stroke-linecap:round;stroke-miterlimit:10;stroke-width:2.4px;}</style></defs><g id="a"/><g id="b"><g id="c"><g><path class="d" d="M71.4,71.4l4.34-13.03c.65-1.94,.14-4.08-1.31-5.53l-5.14-5.14c-1.58-1.58-4.26-1.07-5.14,.99l-12.82,29.91c-.83,1.93,.17,4.16,2.17,4.83l2.65,.88c6.54,2.18,13.74,.11,18.12-5.22,6.23-7.59,13.4-19.58,13.33-34.7-.02-3.75-.16-12.48-5.4-21.6C74.98,10.23,60.56,1.2,44.4,1.2S13.82,10.23,6.6,22.8C1.36,31.92,1.22,40.65,1.2,44.4c-.07,15.12,7.1,27.11,13.33,34.7,4.37,5.33,11.58,7.4,18.12,5.22l2.65-.88c2-.67,3-2.9,2.17-4.83l-12.82-29.91c-.88-2.06-3.56-2.57-5.14-.99l-5.14,5.14c-1.45,1.45-1.95,3.59-1.31,5.53l4.34,13.03"/><path class="d" d="M6.6,22.8c2.27-2.39,15.88-13.5,37.8-13.5,4.81,0,22.02,.58,37.8,13.5"/></g></g></g></svg>