<?xml version="1.0" encoding="UTF-8"?><svg xmlns="http://www.w3.org/2000/svg" viewBox="0 0 102.09 81.55"><g id="a"/><g id="b"><g id="c"><path d="M102.07,73.88c-.02-.09-.05-.17-.09-.25,0-.01,0-.03-.01-.04l-10.3-20.6c-1.54-3.08-4.63-4.99-8.08-4.99h-6.42c1.98-7.37,3.95-14.74,5.92-22.12l4.5-16.81c.08-.31,.04-.64-.12-.91l-.32-.56c-1.16-2.02-2.33-4.03-3.49-6.05-.24-.42-.72-.65-1.2-.59-.48,.06-.88,.41-1,.88l-12.37,46.16h-14.14V6.6c0-.32-.13-.62-.35-.85L49.19,.35c-.34-.34-.86-.45-1.31-.26-.45,.19-.74,.62-.74,1.11V48h-14.14L22.03,7.06c-.08-.31-.28-.57-.56-.73-1.6-.93-3.2-1.85-4.8-2.78l-1.81-1.05c-.42-.24-.95-.21-1.33,.09-.39,.3-.55,.79-.43,1.26,3.94,14.71,7.88,29.42,11.82,44.14h-6.42c-3.44,0-6.54,1.91-8.08,4.99L.13,73.59s0,.02-.01,.03c-.04,.08-.07,.17-.09,.26v.04c-.02,.07-.03,.13-.03,.2v1.77c0,3.12,2.54,5.66,5.66,5.66H96.44c3.12,0,5.66-2.54,5.66-5.66v-1.77c0-.07,0-.13-.02-.19,0-.02,0-.03,0-.05ZM83.03,5.26c.68,1.18,1.36,2.36,2.05,3.54l.07,.13-4.37,16.33c-2.03,7.58-4.06,15.16-6.09,22.74h-3.11L83.03,5.26Zm-33.48-1.17l3,3V48h-3V4.1Zm-33.38,1.94c1.22,.71,2.45,1.41,3.67,2.12l10.68,39.84h-3.11c-3.75-13.99-7.49-27.97-11.24-41.96Zm-3.6,48.02c1.13-2.26,3.4-3.66,5.93-3.66H83.59c2.53,0,4.8,1.4,5.93,3.66l9.23,18.45s-.05,0-.08-.01c-1.86-.33-3.72-.63-5.58-.92-.14-.02-.28-.04-.42-.07-1.82-.28-3.64-.54-5.46-.78-.19-.02-.37-.05-.56-.07-1.79-.23-3.59-.45-5.38-.65-.21-.02-.43-.05-.64-.07-1.78-.19-3.56-.37-5.35-.53-.22-.02-.45-.04-.67-.06-1.78-.15-3.57-.29-5.36-.41-.21-.01-.43-.03-.64-.04-1.8-.12-3.61-.22-5.41-.3-.18,0-.36-.01-.54-.02-1.84-.08-3.69-.14-5.53-.18-.11,0-.23,0-.34,0-1.91-.04-3.83-.06-5.74-.06s-3.83,.02-5.74,.06c-.11,0-.23,0-.34,0-1.84,.04-3.69,.1-5.53,.18-.18,0-.36,.01-.54,.02-1.8,.08-3.61,.18-5.41,.3-.21,.01-.43,.03-.64,.04-1.79,.12-3.57,.26-5.36,.41-.22,.02-.45,.04-.67,.06-1.78,.16-3.57,.33-5.35,.53-.21,.02-.43,.05-.64,.07-1.8,.2-3.59,.41-5.38,.65-.19,.02-.37,.05-.56,.07-1.82,.24-3.65,.5-5.46,.78-.14,.02-.28,.04-.42,.06-1.87,.29-3.73,.59-5.59,.92-.02,0-.05,0-.07,.01l9.23-18.45Zm83.86,25.09H5.66c-1.8,0-3.26-1.46-3.26-3.26v-.77c.59-.11,1.19-.22,1.78-.32,.15-.03,.3-.05,.44-.08,.86-.15,1.71-.29,2.57-.43,.17-.03,.34-.06,.52-.08,.84-.13,1.68-.26,2.51-.39,.19-.03,.38-.06,.57-.09,.82-.12,1.63-.24,2.45-.35,.21-.03,.43-.06,.64-.09,.8-.11,1.59-.21,2.39-.32,.23-.03,.47-.06,.7-.09,.78-.1,1.55-.19,2.33-.28,.26-.03,.51-.06,.77-.09,.76-.09,1.52-.17,2.28-.25,.27-.03,.55-.06,.82-.09,.74-.08,1.48-.15,2.22-.22,.29-.03,.59-.06,.88-.08,.72-.07,1.44-.13,2.16-.19,.31-.03,.62-.05,.94-.08,.71-.06,1.41-.11,2.12-.16,.33-.02,.65-.05,.98-.07,.68-.05,1.37-.09,2.05-.13,.35-.02,.7-.05,1.05-.06,.67-.04,1.35-.07,2.02-.1,.36-.02,.71-.04,1.07-.05,.67-.03,1.34-.06,2-.08,.36-.01,.73-.03,1.09-.04,.67-.02,1.33-.04,2-.06,.36,0,.73-.02,1.09-.03,.72-.02,1.43-.03,2.15-.04,.31,0,.62-.01,.94-.02,1.03-.01,2.06-.02,3.09-.02s2.06,0,3.09,.02c.31,0,.62,.01,.94,.02,.72,.01,1.43,.02,2.15,.04,.36,0,.73,.02,1.09,.03,.67,.02,1.33,.03,2,.06,.37,.01,.73,.03,1.1,.04,.67,.03,1.34,.05,2,.08,.36,.02,.72,.04,1.07,.05,.67,.03,1.35,.07,2.02,.1,.35,.02,.7,.04,1.05,.07,.68,.04,1.37,.08,2.05,.13,.33,.02,.66,.05,.98,.07,.71,.05,1.41,.1,2.12,.16,.31,.03,.63,.05,.94,.08,.72,.06,1.44,.12,2.16,.19,.3,.03,.59,.06,.89,.08,.74,.07,1.47,.14,2.21,.22,.28,.03,.56,.06,.83,.09,.76,.08,1.51,.16,2.26,.25,.26,.03,.52,.06,.78,.09,.77,.09,1.55,.18,2.32,.28,.24,.03,.48,.06,.71,.09,.79,.1,1.59,.21,2.38,.31,.22,.03,.44,.06,.66,.09,.81,.11,1.62,.23,2.43,.35,.2,.03,.39,.06,.59,.09,.83,.13,1.67,.25,2.5,.39,.18,.03,.36,.06,.53,.09,.85,.14,1.7,.28,2.55,.43,.16,.03,.31,.05,.46,.08,.59,.1,1.18,.21,1.77,.32v.77c0,1.8-1.46,3.26-3.26,3.26Z"/></g></g></svg>