<?xml version="1.0" encoding="UTF-8"?><svg xmlns="http://www.w3.org/2000/svg" viewBox="0 0 88.8 45.6"><defs><style>.d{fill:none;stroke:#000;stroke-linecap:round;stroke-linejoin:round;stroke-width:2.4px;}</style></defs><g id="a"/><g id="b"><g id="c"><g><g><rect class="d" x="12" y="1.2" width="64.8" height="43.2" rx="2.41" ry="2.41"/><path class="d" d="M76.8,5.09V40.51c0,1.79,1.88,2.95,3.48,2.15l4.32-2.16c1.84-.92,3-2.8,3-4.85V9.95c0-2.05-1.16-3.93-3-4.85l-4.32-2.16c-1.6-.8-3.48,.36-3.48,2.15Z"/><path class="d" d="M12,5.09V40.51c0,1.79-1.88,2.95-3.48,2.15l-4.32-2.16c-1.84-.92-3-2.8-3-4.85V9.95c0-2.05,1.16-3.93,3-4.85l4.32-2.16c1.6-.8,3.48,.36,3.48,2.15Z"/></g><rect class="d" x="39" y="17.4" width="10.8" height="10.8" rx="5.4" ry="5.4" transform="translate(67.2 -21.6) rotate(90)"/></g></g></g></svg>