<?xml version="1.0" encoding="UTF-8"?><svg xmlns="http://www.w3.org/2000/svg" viewBox="0 0 90.39 61.93"><g id="a"/><g id="b"><g id="c"><g><path d="M8.59,61.93c-.49,0-.97-.05-1.46-.16-2.46-.56-4.55-2.6-6.22-6.05l-.08-.16-.03-.18c-1.08-7.33-1.08-14.72,0-21.95C2.26,23.68,3.91,12.65,12.01,5.69,18.65,0,27.52,0,45.2,0s26.55,0,33.18,5.69c8.11,6.96,9.75,17.99,11.21,27.73,1.08,7.24,1.08,14.62,0,21.95l-.03,.18-.08,.16c-1.66,3.45-3.76,5.49-6.21,6.05-5.43,1.23-11.21-4.77-17.33-11.13-1.43-1.48-2.28-2.48-2.91-3.21-.95-1.11-1.24-1.44-2.21-1.98-2.39-1.32-4.13-1.06-7.28-.57-2.11,.32-4.73,.72-8.34,.72s-6.19-.4-8.28-.71c-3.17-.48-4.91-.74-7.35,.57-.97,.52-1.25,.85-2.19,1.96-.62,.73-1.48,1.73-2.91,3.22-5.58,5.8-10.88,11.3-15.87,11.3Zm-5.43-7.09c.92,1.87,2.44,4.12,4.51,4.59,4.1,.94,9.67-4.86,15.07-10.46,1.39-1.44,2.21-2.41,2.82-3.12,1.01-1.18,1.52-1.78,2.88-2.51,3.14-1.69,5.53-1.33,8.85-.83,2.02,.31,4.53,.69,7.92,.69s5.95-.39,7.98-.7c3.31-.51,5.7-.87,8.8,.85,1.35,.74,1.86,1.34,2.87,2.52,.61,.71,1.44,1.67,2.81,3.1,5.39,5.6,10.97,11.39,15.07,10.46,2.07-.47,3.58-2.72,4.51-4.59,1.02-7.04,1.01-14.12-.03-21.07-1.46-9.78-2.97-19.89-10.39-26.27-5.96-5.11-14.53-5.11-31.62-5.11s-25.66,0-31.62,5.11C6.15,13.88,4.64,24,3.18,33.78c-1.04,6.94-1.04,14.03-.03,21.07Z"/><g><path d="M65.53,28.71c1.35,0,2.44,1.09,2.44,2.44s-1.09,2.44-2.44,2.44-2.44-1.09-2.44-2.44,1.09-2.44,2.44-2.44m0-1.63c-2.25,0-4.07,1.83-4.07,4.07s1.83,4.07,4.07,4.07,4.07-1.83,4.07-4.07-1.83-4.07-4.07-4.07h0Z"/><path d="M72.86,21.38c1.35,0,2.44,1.09,2.44,2.44s-1.09,2.44-2.44,2.44-2.44-1.09-2.44-2.44,1.09-2.44,2.44-2.44m0-1.63c-2.25,0-4.07,1.83-4.07,4.07s1.83,4.07,4.07,4.07,4.07-1.83,4.07-4.07-1.83-4.07-4.07-4.07h0Z"/><path d="M58.21,21.38c1.35,0,2.44,1.09,2.44,2.44s-1.09,2.44-2.44,2.44-2.44-1.09-2.44-2.44,1.09-2.44,2.44-2.44m0-1.63c-2.25,0-4.07,1.83-4.07,4.07s1.83,4.07,4.07,4.07,4.07-1.83,4.07-4.07-1.83-4.07-4.07-4.07h0Z"/><path d="M65.53,14.05c1.35,0,2.44,1.09,2.44,2.44s-1.09,2.44-2.44,2.44-2.44-1.09-2.44-2.44,1.09-2.44,2.44-2.44m0-1.63c-2.25,0-4.07,1.83-4.07,4.07s1.83,4.07,4.07,4.07,4.07-1.83,4.07-4.07-1.83-4.07-4.07-4.07h0Z"/><path d="M24.86,14.05c1.35,0,2.44,1.1,2.44,2.45v2.41c0,1.37,1.11,2.47,2.47,2.47h2.42c1.34,0,2.44,1.09,2.44,2.44s-1.1,2.44-2.44,2.44h-2.41c-1.37,0-2.47,1.11-2.47,2.47v2.29c0,1.29-.94,2.45-2.23,2.56-.07,0-.14,0-.21,0-1.35,0-2.44-1.1-2.44-2.45v-2.41c0-1.37-1.11-2.47-2.47-2.47h-2.29c-1.29,0-2.45-.94-2.56-2.23-.12-1.45,1.02-2.66,2.44-2.66h2.41c1.37,0,2.47-1.11,2.47-2.47v-2.29c0-1.29,.94-2.45,2.23-2.56,.07,0,.14,0,.21,0m0-1.63c-.12,0-.24,0-.35,.02-2.08,.18-3.72,2.02-3.72,4.18v2.29c0,.47-.38,.85-.85,.85h-2.41c-1.14,0-2.24,.48-3.01,1.32-.77,.84-1.15,1.97-1.06,3.1,.18,2.08,2.02,3.72,4.18,3.72h2.29c.47,0,.85,.38,.85,.85v2.41c0,2.25,1.83,4.08,4.07,4.08,.12,0,.24,0,.35-.02,2.08-.18,3.72-2.02,3.72-4.18v-2.29c0-.47,.38-.85,.85-.85h2.41c2.24,0,4.07-1.83,4.07-4.07s-1.83-4.07-4.07-4.07h-2.42c-.47,0-.85-.38-.85-.85v-2.41c0-2.25-1.83-4.08-4.07-4.08h0Z"/></g></g></g></g></svg>