<?xml version="1.0" encoding="UTF-8"?><svg xmlns="http://www.w3.org/2000/svg" viewBox="0 0 102.09 83.4"><g id="a"/><g id="b"><g id="c"><path d="M102.07,75.72h0c-.02-.1-.05-.18-.09-.26,0,0,0-.02,0-.03l-10.3-20.6c-.95-1.9-2.49-3.35-4.34-4.19,1.41-1.21,2.3-3,2.3-5V6.59c0-3.64-2.96-6.59-6.59-6.59H19.06c-3.64,0-6.59,2.96-6.59,6.59V45.65c0,2,.9,3.79,2.3,5-1.85,.84-3.39,2.29-4.34,4.19L.13,75.43s0,.02,0,.03c-.04,.08-.07,.16-.09,.25h0c-.02,.09-.03,.17-.03,.26v1.77c0,3.12,2.54,5.66,5.66,5.66H96.44c3.12,0,5.66-2.54,5.66-5.66v-1.77c0-.08,0-.17-.03-.25ZM14.86,6.59c0-2.31,1.88-4.19,4.19-4.19h63.98c2.31,0,4.19,1.88,4.19,4.19V45.65c0,2.31-1.88,4.19-4.19,4.19H19.06c-2.31,0-4.19-1.88-4.19-4.19V6.59Zm-2.29,49.32c1.13-2.26,3.4-3.66,5.93-3.66H83.59c2.53,0,4.8,1.4,5.93,3.66l9.43,18.86H3.14l9.43-18.86Zm87.12,21.83c0,1.8-1.46,3.26-3.26,3.26H5.66c-1.8,0-3.26-1.46-3.26-3.26v-.57H99.69v.57Z"/></g></g></svg>