<?xml version="1.0" encoding="UTF-8"?><svg xmlns="http://www.w3.org/2000/svg" viewBox="0 0 53.4 91.2"><defs><style>.d{fill:none;stroke:#000;stroke-linecap:round;stroke-miterlimit:10;stroke-width:2.4px;}</style></defs><g id="a"/><g id="b"><g id="c"><g><path d="M45.21,2.4c3.2,0,5.79,2.59,5.79,5.79V83.01c0,3.2-2.59,5.79-5.79,5.79H8.19c-3.2,0-5.79-2.59-5.79-5.79V8.19c0-3.2,2.59-5.79,5.79-5.79H45.21m0-2.4H8.19C3.68,0,0,3.68,0,8.19V83.01c0,4.52,3.68,8.19,8.19,8.19H45.21c4.52,0,8.19-3.68,8.19-8.19V8.19c0-4.52-3.68-8.19-8.19-8.19h0Z"/><path d="M39.22,2.4v2.52c0,1.59-1.29,2.88-2.88,2.88H17.06c-1.59,0-2.88-1.29-2.88-2.88V2.4h25.03m2.4-2.4H11.78V4.92c0,2.91,2.37,5.28,5.28,5.28h19.28c2.91,0,5.28-2.37,5.28-5.28V0h0Z"/><path class="d" d="M14.51,81.6h24.38"/></g></g></g></svg>