<?xml version="1.0" encoding="UTF-8"?><svg xmlns="http://www.w3.org/2000/svg" viewBox="0 0 79.61 91.2"><g id="a"/><g id="b"><g id="c"><g><path d="M70.02,2.4c3.97,0,7.19,3.22,7.19,7.19V81.61c0,3.97-3.22,7.19-7.19,7.19H9.59c-3.97,0-7.19-3.22-7.19-7.19V9.59c0-3.97,3.22-7.19,7.19-7.19h60.43m0-2.4H9.59C4.3,0,0,4.3,0,9.59V81.61c0,5.29,4.3,9.59,9.59,9.59h60.43c5.29,0,9.59-4.3,9.59-9.59V9.59c0-5.29-4.3-9.59-9.59-9.59h0Z"/><path d="M49.54,82.8H30.07c-.66,0-1.2-.54-1.2-1.2s.54-1.2,1.2-1.2h19.48c.66,0,1.2,.54,1.2,1.2s-.54,1.2-1.2,1.2Z"/><path d="M39.81,10.1c1.35,0,2.44,1.09,2.44,2.44s-1.09,2.44-2.44,2.44-2.44-1.09-2.44-2.44,1.09-2.44,2.44-2.44m0-1.63c-2.25,0-4.07,1.83-4.07,4.07s1.83,4.07,4.07,4.07,4.07-1.83,4.07-4.07-1.83-4.07-4.07-4.07h0Z"/></g></g></g></svg>